<svg width="21" height="20" viewBox="0 0 21 20" fill="none" xmlns="http://www.w3.org/2000/svg">
    <mask id="22j2o5esba" style="mask-type:alpha" maskUnits="userSpaceOnUse" x="0" y="0" width="21" height="20">
        <path fill="#D9D9D9" d="M.5 0h20v20H.5z"/>
    </mask>
    <g mask="url(#22j2o5esba)">
        <path d="m5.5 17.5 5-5 5 5h-10zm-3.333-3.333v-10c0-.459.163-.851.49-1.177.326-.327.718-.49 1.177-.49h13.333c.458 0 .85.163 1.177.49.326.326.49.718.49 1.177v10c0 .458-.163.85-.49 1.177-.326.326-.719.49-1.177.49h-2.5v-1.667h2.5v-10H3.834v10h2.5v1.666h-2.5c-.459 0-.851-.163-1.177-.49a1.605 1.605 0 0 1-.49-1.176z" fill="#fff"/>
    </g>
</svg>
