<svg width="20" height="21" viewBox="0 0 20 21" fill="none" xmlns="http://www.w3.org/2000/svg">
    <mask id="cw7legh5ra" style="mask-type:alpha" maskUnits="userSpaceOnUse" x="0" y="0" width="20" height="21">
        <path fill="#D9D9D9" d="M0 .5h20v20H0z"/>
    </mask>
    <g mask="url(#cw7legh5ra)">
        <path d="M2.916 18.32V2.679L4.07 3.704 5.256 2.68l1.186 1.025L7.628 2.68l1.185 1.025L10 2.68l1.186 1.025 1.186-1.025 1.186 1.025 1.186-1.025 1.186 1.025 1.154-1.025v15.64l-1.154-1.025-1.186 1.026-1.186-1.026-1.186 1.026-1.186-1.026L10 18.32l-1.186-1.026-1.185 1.026-1.186-1.026-1.186 1.026-1.186-1.026-1.154 1.026zM5.208 14.2h9.583v-1.25H5.208v1.25zm0-3.077h9.583v-1.25H5.208v1.25zm0-3.077h9.583v-1.25H5.208v1.25zm-1.042 8.369h11.667V4.583H4.166v11.833z" fill="#1C1B1F"/>
    </g>
</svg>
