<svg width="32" height="32" viewBox="0 0 32 32" fill="none" xmlns="http://www.w3.org/2000/svg">
<g id="drafts">
<mask id="mask0_963_53294" style="mask-type:alpha" maskUnits="userSpaceOnUse" x="0" y="0" width="32" height="32">
<rect id="Bounding box" width="32" height="32" fill="white"/>
</mask>
<g mask="url(#mask0_963_53294)">
<path id="drafts_2" d="M16.0003 1.3335L28.067 8.5335C28.467 8.77794 28.7781 9.11127 29.0003 9.5335C29.2225 9.95572 29.3337 10.4002 29.3337 10.8668V25.3335C29.3337 26.0668 29.0725 26.6946 28.5503 27.2168C28.0281 27.739 27.4003 28.0002 26.667 28.0002H5.33366C4.60033 28.0002 3.97255 27.739 3.45033 27.2168C2.9281 26.6946 2.66699 26.0668 2.66699 25.3335V10.8668C2.66699 10.4002 2.7781 9.95572 3.00033 9.5335C3.22255 9.11127 3.53366 8.77794 3.93366 8.5335L16.0003 1.3335ZM16.0003 16.8668L26.4003 10.6668L16.0003 4.46683L5.60033 10.6668L16.0003 16.8668Z" fill="white"/>
</g>
</g>
</svg>
