<svg width="32" height="32" viewBox="0 0 32 32" fill="none" xmlns="http://www.w3.org/2000/svg">
<path fill-rule="evenodd" clip-rule="evenodd" d="M26.5565 2.7666H6.43419C3.58614 2.7666 1.2666 5.09593 1.2666 7.93419V20.4421C1.2666 23.2901 3.59593 25.6097 6.43419 25.6097H13.5396L14.763 27.7237L15.9668 29.8084C16.1821 30.1901 16.7302 30.1901 16.9553 29.8084L18.1591 27.7237L19.3825 25.6097H26.5663C29.4143 25.6097 31.7339 23.2804 31.7339 20.4421V7.94398C31.7339 5.09593 29.4045 2.7666 26.5565 2.7666ZM17.9046 11.927C16.3485 11.927 15.0859 13.17 15.0859 14.7066C15.0859 16.2432 16.3485 17.4861 17.9046 17.4861C19.4608 17.4861 20.7233 16.2432 20.7233 14.7066C20.7233 13.17 19.4705 11.927 17.9046 11.927ZM17.9046 16.0376C17.1608 16.0376 16.554 15.4406 16.554 14.7066C16.554 13.9726 17.1608 13.3755 17.9046 13.3755C18.6484 13.3755 19.2552 13.9726 19.2552 14.7066C19.2552 15.4406 18.6582 16.0376 17.9046 16.0376ZM7.37375 12.5634C7.81417 12.1621 8.38183 11.9272 8.98863 11.9272C10.398 11.9272 11.5235 13.18 11.5235 14.7166C11.5235 16.2531 10.3882 17.4961 8.98863 17.4961C8.37204 17.4961 7.81417 17.2514 7.37375 16.8599V17.3591H5.80782V10.2634H7.37375V12.5634ZM7.38354 15.2549C7.59886 15.754 8.098 16.0966 8.67544 16.0966C9.45841 16.0966 10.0848 15.48 10.0848 14.7068C10.0848 13.9336 9.45841 13.317 8.67544 13.317C8.098 13.317 7.59886 13.6596 7.38354 14.1587C7.30524 14.3251 7.2661 14.511 7.2661 14.7068C7.2661 14.9025 7.31503 15.0885 7.38354 15.2549ZM25.6071 12.0447V12.4851C25.1667 12.1426 24.6186 11.937 24.0314 11.937C22.5927 11.937 21.428 13.1409 21.428 14.6187C21.428 16.0966 22.5927 17.3004 24.0314 17.3004C24.6284 17.3004 25.1765 17.0948 25.6071 16.7523V17.4961C25.6071 17.4961 25.4505 18.2301 24.3543 18.2301V19.6101C24.3543 19.6101 25.5386 19.7471 26.5956 18.6901C26.5956 18.6901 27.0849 18.1714 27.1926 17.4863V12.0447H25.6071ZM24.325 15.9791C23.5322 15.9791 22.8961 15.3625 22.8961 14.6089C22.8961 13.8553 23.542 13.2387 24.325 13.2387C24.8828 13.2387 25.3722 13.5519 25.6071 14.0021C25.705 14.1881 25.7539 14.3936 25.7539 14.6089C25.7539 14.8242 25.6952 15.0396 25.6071 15.2157C25.3722 15.6757 24.8828 15.9791 24.325 15.9791ZM11.6999 11.5454V10.1263C11.6999 10.1263 12.7373 9.98924 13.6573 11.0756C13.6573 11.0756 14.0781 11.6041 14.176 12.3088V12.3479V17.3589H12.5611V12.3479C12.4241 11.6433 11.6999 11.5454 11.6999 11.5454Z" fill="white"/>
</svg>
