<svg width="20" height="20" viewBox="0 0 20 20" fill="none" xmlns="http://www.w3.org/2000/svg">
<mask id="mask0_1385_48478" style="mask-type:alpha" maskUnits="userSpaceOnUse" x="0" y="0" width="20" height="20">
<rect width="20" height="20" fill="#980D0D"/>
</mask>
<g mask="url(#mask0_1385_48478)">
<path d="M9.99965 17.5799L8.0157 14.5831H3.58942C3.16848 14.5831 2.81217 14.4373 2.52051 14.1456C2.22884 13.8539 2.08301 13.4976 2.08301 13.0767V3.58955C2.08301 3.1686 2.22884 2.8123 2.52051 2.52063C2.81217 2.22896 3.16848 2.08313 3.58942 2.08313H16.4099C16.8308 2.08313 17.1871 2.22896 17.4788 2.52063C17.7705 2.8123 17.9163 3.1686 17.9163 3.58955V13.0767C17.9163 13.4976 17.7705 13.8539 17.4788 14.1456C17.1871 14.4373 16.8308 14.5831 16.4099 14.5831H11.9836L9.99965 17.5799ZM3.58942 13.3331H16.4099C16.474 13.3331 16.5328 13.3064 16.5862 13.253C16.6396 13.1996 16.6663 13.1408 16.6663 13.0767V3.58955C16.6663 3.52544 16.6396 3.46667 16.5862 3.41323C16.5328 3.35982 16.474 3.33311 16.4099 3.33311H3.58942C3.52531 3.33311 3.46654 3.35982 3.41311 3.41323C3.3597 3.46667 3.33299 3.52544 3.33299 3.58955V13.0767C3.33299 13.1408 3.3597 13.1996 3.41311 13.253C3.46654 13.3064 3.52531 13.3331 3.58942 13.3331Z" fill="#980D0D"/>
</g>
</svg>
