<svg width="36" height="36" viewBox="0 0 36 36" fill="none" xmlns="http://www.w3.org/2000/svg">
<g id="download">
<mask id="mask0_1162_9090" style="mask-type:alpha" maskUnits="userSpaceOnUse" x="0" y="0" width="36" height="36">
<rect id="Bounding box" width="36" height="36" fill="#D9D9D9"/>
</mask>
<g mask="url(#mask0_1162_9090)">
<path id="download_2" d="M18 23.6826L11.5962 17.2789L13.1769 15.652L16.875 19.35V6.75H19.1249V19.35L22.823 15.652L24.4037 17.2789L18 23.6826ZM9.46155 29.2499C8.70385 29.2499 8.0625 28.9874 7.5375 28.4624C7.0125 27.9374 6.75 27.2961 6.75 26.5384V22.4711H8.99996V26.5384C8.99996 26.6538 9.04804 26.7596 9.14419 26.8557C9.24036 26.9519 9.34615 27 9.46155 27H26.5384C26.6538 27 26.7596 26.9519 26.8557 26.8557C26.9519 26.7596 27 26.6538 27 26.5384V22.4711H29.2499V26.5384C29.2499 27.2961 28.9874 27.9374 28.4624 28.4624C27.9374 28.9874 27.2961 29.2499 26.5384 29.2499H9.46155Z" fill="white"/>
</g>
</g>
</svg>
