<svg width="20" height="20" viewBox="0 0 20 20" fill="none" xmlns="http://www.w3.org/2000/svg">
    <mask id="kdzrfipp7a" style="mask-type:alpha" maskUnits="userSpaceOnUse" x="0" y="0" width="20" height="20">
        <path fill="#D9D9D9" d="M0 0h20v20H0z"/>
    </mask>
    <g mask="url(#kdzrfipp7a)">
        <path d="M16.625 17.5c-1.736 0-3.451-.378-5.146-1.135-1.694-.757-3.236-1.83-4.625-3.22-1.389-1.388-2.462-2.93-3.219-4.624C2.878 6.826 2.5 5.11 2.5 3.375c0-.25.083-.458.25-.625a.848.848 0 0 1 .625-.25H6.75c.194 0 .368.066.52.198a.761.761 0 0 1 .272.469l.541 2.916c.028.223.021.41-.02.563a.876.876 0 0 1-.23.396l-2.02 2.041c.277.514.607 1.01.99 1.49.381.48.801.94 1.26 1.385.43.43.881.83 1.354 1.198.472.368.972.705 1.5 1.01l1.958-1.958c.125-.125.288-.218.49-.28.201-.063.399-.08.593-.053l2.875.583a.965.965 0 0 1 .48.302.733.733 0 0 1 .187.49v3.375c0 .25-.083.458-.25.625a.848.848 0 0 1-.625.25z" fill="#980D0D"/>
    </g>
</svg>
