<svg width="20" height="20" viewBox="0 0 20 20" fill="none" xmlns="http://www.w3.org/2000/svg">
    <mask id="hn3i477dpa" style="mask-type:alpha" maskUnits="userSpaceOnUse" x="0" y="0" width="20" height="20">
        <path fill="#D9D9D9" d="M0 0h20v20H0z"/>
    </mask>
    <g mask="url(#hn3i477dpa)">
        <path d="M9.999 10c.458 0 .85-.163 1.177-.49.326-.326.49-.718.49-1.177 0-.458-.164-.85-.49-1.177a1.605 1.605 0 0 0-1.177-.49c-.459 0-.851.164-1.177.49-.327.327-.49.72-.49 1.177 0 .459.163.851.49 1.178.326.326.718.49 1.177.49zm0 8.333c-2.236-1.902-3.907-3.67-5.01-5.302C3.883 11.4 3.331 9.89 3.331 8.501c0-2.084.67-3.744 2.01-4.98C6.682 2.285 8.235 1.667 10 1.667c1.764 0 3.316.618 4.656 1.854 1.34 1.236 2.01 2.896 2.01 4.98 0 1.388-.552 2.898-1.656 4.53-1.104 1.632-2.774 3.4-5.01 5.302z" fill="#980D0D"/>
    </g>
</svg>
