<svg width="32" height="32" viewBox="0 0 32 32" fill="none" xmlns="http://www.w3.org/2000/svg">
<g id="&#236;&#185;&#180;&#236;&#185;&#180;&#236;&#152;&#164;">
<path id="Exclude" fill-rule="evenodd" clip-rule="evenodd" d="M16.0777 2.05811C7.69382 2.05811 0.932617 7.46701 0.932617 14.0335C0.932617 18.2957 3.74528 22.0279 7.96427 24.159L6.5363 29.4923C6.50938 29.5723 6.50524 29.6581 6.52434 29.7402C6.54345 29.8224 6.58505 29.8976 6.64448 29.9574C6.73114 30.0339 6.84265 30.0761 6.9582 30.0764C7.05401 30.0687 7.14491 30.0309 7.21783 29.9683L13.3624 25.8251C14.2694 25.9502 15.1837 26.0152 16.0993 26.0197C24.4724 26.0197 31.2444 20.6108 31.2444 14.0335C31.2444 7.45619 24.4508 2.05811 16.0777 2.05811ZM6.23282 12.1405H4.57768C4.37253 12.1465 4.16993 12.0939 3.99351 11.9891C3.91519 11.94 3.84785 11.8752 3.79573 11.7989C3.7436 11.7226 3.70782 11.6363 3.69061 11.5455C3.68536 11.4879 3.68536 11.4301 3.69061 11.3725C3.68547 11.2648 3.70638 11.1573 3.75158 11.0594C3.79678 10.9615 3.86492 10.8759 3.95024 10.8099C4.13884 10.6734 4.36647 10.6012 4.59931 10.6043H9.58638C9.79315 10.5971 9.99714 10.6538 10.1705 10.7666C10.2507 10.8135 10.3195 10.8777 10.3719 10.9544C10.4242 11.0311 10.4589 11.1185 10.4734 11.2102C10.4787 11.2642 10.4787 11.3185 10.4734 11.3725C10.4785 11.4818 10.4577 11.5907 10.4126 11.6903C10.3674 11.79 10.2993 11.8775 10.2138 11.9457C10.0298 12.0822 9.80438 12.151 9.57556 12.1405H7.97451V17.8308C7.98101 17.952 7.96225 18.0732 7.91942 18.1868C7.87659 18.3004 7.81062 18.4039 7.72569 18.4906C7.64426 18.5736 7.54637 18.6386 7.43831 18.6815C7.33025 18.7243 7.21441 18.744 7.09825 18.7394C6.89509 18.7452 6.69623 18.6803 6.53572 18.5556C6.38292 18.4338 6.2792 18.2609 6.24364 18.0687C6.23295 17.9898 6.23295 17.9097 6.24364 17.8308L6.23282 12.1405ZM11.2648 10.5933C11.1104 10.6939 10.9987 10.848 10.9511 11.0261L8.65769 17.2464C8.64552 17.2798 8.6308 17.3141 8.61591 17.3488C8.57783 17.4375 8.53869 17.5287 8.53869 17.6143C8.52011 17.7216 8.52011 17.8313 8.53869 17.9387C8.53295 17.9999 8.53295 18.0615 8.53869 18.1227C8.57038 18.302 8.66657 18.4636 8.80914 18.5769C8.95547 18.6868 9.13465 18.744 9.31758 18.7392C9.48646 18.7605 9.65747 18.7225 9.80147 18.6317C9.94547 18.541 10.0536 18.4032 10.1073 18.2417L10.5616 16.9111H13.4068L13.8611 18.2417C13.9162 18.4 14.023 18.5353 14.1643 18.6255C14.3056 18.7158 14.4731 18.7558 14.64 18.7392C14.7485 18.7418 14.8564 18.7221 14.9569 18.6811C15.0574 18.6402 15.1484 18.579 15.2242 18.5013C15.3024 18.4305 15.3642 18.3434 15.4053 18.2463C15.4464 18.1491 15.4658 18.0442 15.4622 17.9387C15.4659 17.8703 15.4659 17.8017 15.4622 17.7332C15.4246 17.5684 15.3776 17.4058 15.3215 17.2464L13.1579 11.1342C13.1062 10.9176 12.9749 10.7284 12.7901 10.6041C12.6157 10.505 12.4172 10.4563 12.2168 10.4635H11.8057C11.6168 10.4551 11.4293 10.5001 11.2648 10.5933ZM11.0052 15.6886L12.0329 12.4433L13.0498 15.6886H11.0052ZM15.7099 11.3726C15.6989 11.1298 15.7844 10.8926 15.9479 10.7127C16.0309 10.6289 16.1307 10.5634 16.2406 10.5206C16.3506 10.4777 16.4683 10.4583 16.5861 10.4638C16.7888 10.4614 16.9865 10.5261 17.1487 10.6477C17.2989 10.7746 17.3987 10.9511 17.4299 11.1453C17.4406 11.2207 17.4406 11.2972 17.4299 11.3726V17.0628H20.4049C20.6111 17.0601 20.8137 17.1163 20.989 17.225C21.0678 17.2736 21.1355 17.3382 21.1876 17.4146C21.2398 17.491 21.2754 17.5775 21.2919 17.6686V17.8309C21.2971 17.9386 21.2761 18.0459 21.231 18.1438C21.1858 18.2418 21.1176 18.3274 21.0323 18.3934C20.8437 18.53 20.6161 18.602 20.3832 18.5989H16.7268C16.4939 18.6139 16.2624 18.5533 16.0669 18.4259C15.892 18.2951 15.7754 18.1009 15.7423 17.885C15.7344 17.7661 15.7344 17.6468 15.7423 17.5279L15.7099 11.3726ZM21.7247 10.7125C21.5652 10.8947 21.4803 11.1303 21.4867 11.3724L21.4218 17.7765C21.4111 17.8555 21.4111 17.9357 21.4218 18.0146C21.4574 18.2068 21.5611 18.3796 21.7139 18.5014C21.8711 18.6245 22.066 18.6895 22.2656 18.6853C22.3851 18.6903 22.5043 18.6708 22.6159 18.628C22.7275 18.5852 22.8292 18.52 22.9147 18.4364C23.0742 18.2542 23.1592 18.0186 23.1527 17.7765V15.97L24.1155 14.9639L26.1276 18.2093C26.211 18.3614 26.3297 18.4913 26.4738 18.5879C26.607 18.6579 26.7562 18.6915 26.9065 18.6853C27.1327 18.6885 27.3535 18.6161 27.534 18.4797C27.6299 18.3981 27.7046 18.2945 27.7517 18.1777C27.7989 18.0609 27.8169 17.9344 27.8044 17.809V17.755C27.7447 17.5731 27.6571 17.4015 27.5448 17.2465V17.1383L25.3812 13.7848L27.177 11.8158C27.2562 11.7265 27.3251 11.6286 27.3825 11.5239C27.4389 11.425 27.4687 11.3131 27.4691 11.1993C27.4638 11.1743 27.4638 11.1486 27.4691 11.1236C27.4734 11.1022 27.4734 11.0801 27.4691 11.0586C27.4536 10.9713 27.4208 10.888 27.3725 10.8137C27.3242 10.7393 27.2613 10.6754 27.1878 10.6259C27.0317 10.5192 26.8468 10.4626 26.6577 10.4636C26.5284 10.4611 26.401 10.4949 26.2899 10.5611C26.172 10.655 26.06 10.7561 25.9545 10.8639L23.2176 14.0227V11.3724C23.2229 11.2968 23.2229 11.2208 23.2176 11.1451C23.1826 10.9498 23.0791 10.7733 22.9255 10.6476C22.7485 10.5186 22.5323 10.4546 22.3136 10.4664C22.0948 10.4782 21.8869 10.5652 21.7247 10.7125Z" fill="white"/>
</g>
</svg>
