<svg width="16" height="20" viewBox="0 0 16 20" fill="none" xmlns="http://www.w3.org/2000/svg">
    <path d="M8 10c.55 0 1.02-.196 1.412-.588C9.804 9.021 10 8.55 10 8c0-.55-.196-1.02-.588-1.412A1.926 1.926 0 0 0 8 6c-.55 0-1.02.196-1.412.588A1.926 1.926 0 0 0 6 8c0 .55.196 1.02.588 1.412C6.979 9.804 7.45 10 8 10zm0 10c-2.683-2.283-4.688-4.404-6.013-6.363C.662 11.68 0 9.867 0 8.2c0-2.5.804-4.492 2.413-5.975C4.02.742 5.883 0 8 0c2.117 0 3.98.742 5.588 2.225S16 5.7 16 8.2c0 1.667-.662 3.48-1.988 5.438C12.688 15.595 10.683 17.716 8 20z" fill="#980D0D"/>
</svg>
