<svg width="80" height="77" viewBox="0 0 80 77" fill="none" xmlns="http://www.w3.org/2000/svg">
<g id="_&#234;&#178;&#169;&#235;&#166;&#172;_&#235;&#170;&#168;&#235;&#147;&#156;" clip-path="url(#clip0_785_100636)">
<g id="Group">
<path id="Vector" d="M70.9853 37.9285C70.1435 53.8155 58.8596 66.9322 43.8711 70.5479C47.707 74.2879 52.9423 76.593 58.721 76.593C70.4738 76.593 79.9997 67.0672 79.9997 55.3144C79.9997 48.1291 76.4372 41.7821 70.9853 37.9285Z" fill="#E3EDFD"/>
<path id="Vector_2" d="M37.4427 55.3109C37.4427 43.5581 46.9686 34.0322 58.7214 34.0322C63.2889 34.0322 67.5191 35.4778 70.9856 37.9285C71.0176 37.2963 71.0353 36.6605 71.0353 36.0177C71.0353 16.4013 55.1341 0.5 35.5177 0.5C15.9013 0.5 0 16.4013 0 36.0177C0 55.6341 15.9013 71.5353 35.5177 71.5353C38.3946 71.5353 41.1898 71.1908 43.8714 70.5444C39.9076 66.6801 37.4427 61.2849 37.4427 55.3109Z" fill="#007BEB"/>
<path id="Vector_3" d="M70.9853 37.9285C67.5187 35.4778 63.2886 34.0322 58.721 34.0322C46.9682 34.0322 37.4424 43.5581 37.4424 55.3109C37.4424 61.2849 39.9073 66.6801 43.8711 70.5444C58.8595 66.9322 70.1435 53.8156 70.9853 37.925V37.9285Z" fill="url(#paint0_linear_785_100636)"/>
</g>
<path id="Vector_4" d="M35.5178 64.059C51.0045 64.059 63.559 51.5045 63.559 36.0178C63.559 20.531 51.0045 7.97656 35.5178 7.97656C20.031 7.97656 7.47656 20.531 7.47656 36.0178C7.47656 51.5045 20.031 64.059 35.5178 64.059Z" fill="white"/>
<g id="Group_2">
<path id="Vector_5" d="M53.0381 20.1377L51.3724 18.4719L32.136 32.8921L17.7158 52.1249L19.3816 53.7907L38.618 39.3705L53.0381 20.1377Z" fill="#007BEB"/>
<path id="Vector_6" d="M34.2483 32.991L32.4902 34.749L36.5086 38.7674L38.2666 37.0094L34.2483 32.991Z" fill="white"/>
</g>
</g>
<defs>
<linearGradient id="paint0_linear_785_100636" x1="37.4424" y1="52.2883" x2="70.9853" y2="52.2883" gradientUnits="userSpaceOnUse">
<stop stop-color="#707070"/>
<stop offset="1"/>
</linearGradient>
<clipPath id="clip0_785_100636">
<rect width="80" height="76.0895" fill="white" transform="translate(0 0.5)"/>
</clipPath>
</defs>
</svg>
