<svg width="32" height="33" viewBox="0 0 32 33" fill="none" xmlns="http://www.w3.org/2000/svg">
<g id="drafts">
<mask id="mask0_959_147834" style="mask-type:alpha" maskUnits="userSpaceOnUse" x="0" y="0" width="32" height="33">
<rect id="Bounding box" y="0.467285" width="32" height="32" fill="white"/>
</mask>
<g mask="url(#mask0_959_147834)">
<path id="drafts_2" d="M15.9998 1.80078L28.0665 9.00078C28.4665 9.24523 28.7776 9.57856 28.9998 10.0008C29.2221 10.423 29.3332 10.8674 29.3332 11.3341V25.8008C29.3332 26.5341 29.0721 27.1619 28.5498 27.6841C28.0276 28.2063 27.3998 28.4674 26.6665 28.4674H5.33317C4.59984 28.4674 3.97206 28.2063 3.44984 27.6841C2.92762 27.1619 2.6665 26.5341 2.6665 25.8008V11.3341C2.6665 10.8674 2.77762 10.423 2.99984 10.0008C3.22206 9.57856 3.53317 9.24523 3.93317 9.00078L15.9998 1.80078ZM15.9998 17.3341L26.3998 11.1341L15.9998 4.93411L5.59984 11.1341L15.9998 17.3341Z" fill="white"/>
</g>
</g>
</svg>
