<svg width="32" height="33" viewBox="0 0 32 33" fill="none" xmlns="http://www.w3.org/2000/svg">
<g id="&#236;&#185;&#180;&#236;&#185;&#180;&#236;&#152;&#164;">
<path id="Exclude" fill-rule="evenodd" clip-rule="evenodd" d="M16.0777 2.52539C7.69382 2.52539 0.932617 7.93429 0.932617 14.5008C0.932617 18.763 3.74528 22.4952 7.96427 24.6263L6.5363 29.9596C6.50938 30.0396 6.50524 30.1253 6.52434 30.2075C6.54345 30.2897 6.58505 30.3649 6.64448 30.4247C6.73114 30.5012 6.84265 30.5434 6.9582 30.5437C7.05401 30.536 7.14491 30.4982 7.21783 30.4356L13.3624 26.2923C14.2694 26.4175 15.1837 26.4825 16.0993 26.487C24.4724 26.487 31.2444 21.0781 31.2444 14.5008C31.2444 7.92348 24.4508 2.52539 16.0777 2.52539ZM6.23282 12.6078H4.57768C4.37253 12.6138 4.16993 12.5612 3.99351 12.4563C3.91519 12.4073 3.84785 12.3425 3.79573 12.2662C3.7436 12.1899 3.70782 12.1036 3.69061 12.0128C3.68536 11.9552 3.68536 11.8974 3.69061 11.8398C3.68547 11.732 3.70638 11.6246 3.75158 11.5267C3.79678 11.4288 3.86492 11.3432 3.95024 11.2772C4.13884 11.1406 4.36647 11.0685 4.59931 11.0716H9.58638C9.79315 11.0644 9.99714 11.121 10.1705 11.2339C10.2507 11.2808 10.3195 11.345 10.3719 11.4217C10.4242 11.4984 10.4589 11.5857 10.4734 11.6775C10.4787 11.7314 10.4787 11.7858 10.4734 11.8398C10.4785 11.9491 10.4577 12.058 10.4126 12.1576C10.3674 12.2573 10.2993 12.3448 10.2138 12.413C10.0298 12.5495 9.80438 12.6183 9.57556 12.6078H7.97451V18.298C7.98101 18.4193 7.96225 18.5405 7.91942 18.6541C7.87659 18.7677 7.81062 18.8712 7.72569 18.9579C7.64426 19.0409 7.54637 19.1059 7.43831 19.1487C7.33025 19.1916 7.21441 19.2113 7.09825 19.2067C6.89509 19.2125 6.69623 19.1476 6.53572 19.0229C6.38292 18.9011 6.2792 18.7282 6.24364 18.536C6.23295 18.457 6.23295 18.377 6.24364 18.298L6.23282 12.6078ZM11.2648 11.0606C11.1104 11.1612 10.9987 11.3153 10.9511 11.4933L8.65769 17.7136C8.64552 17.7471 8.6308 17.7814 8.61591 17.8161C8.57783 17.9048 8.53869 17.996 8.53869 18.0815C8.52011 18.1889 8.52011 18.2986 8.53869 18.406C8.53295 18.4672 8.53295 18.5288 8.53869 18.59C8.57038 18.7693 8.66657 18.9308 8.80914 19.0442C8.95547 19.1541 9.13465 19.2113 9.31758 19.2065C9.48646 19.2277 9.65747 19.1898 9.80147 19.099C9.94547 19.0083 10.0536 18.8704 10.1073 18.7089L10.5616 17.3784H13.4068L13.8611 18.7089C13.9162 18.8673 14.023 19.0025 14.1643 19.0928C14.3056 19.1831 14.4731 19.2231 14.64 19.2065C14.7485 19.2091 14.8564 19.1894 14.9569 19.1484C15.0574 19.1075 15.1484 19.0462 15.2242 18.9686C15.3024 18.8978 15.3642 18.8107 15.4053 18.7136C15.4464 18.6164 15.4658 18.5114 15.4622 18.406C15.4659 18.3375 15.4659 18.269 15.4622 18.2005C15.4246 18.0357 15.3776 17.8731 15.3215 17.7136L13.1579 11.6015C13.1062 11.3849 12.9749 11.1957 12.7901 11.0714C12.6157 10.9723 12.4172 10.9236 12.2168 10.9308H11.8057C11.6168 10.9224 11.4293 10.9673 11.2648 11.0606ZM11.0052 16.1559L12.0329 12.9105L13.0498 16.1559H11.0052ZM15.7099 11.8399C15.6989 11.5971 15.7844 11.3599 15.9479 11.18C16.0309 11.0962 16.1307 11.0307 16.2406 10.9879C16.3506 10.945 16.4683 10.9256 16.5861 10.9311C16.7888 10.9287 16.9865 10.9934 17.1487 11.115C17.2989 11.2419 17.3987 11.4184 17.4299 11.6126C17.4406 11.688 17.4406 11.7645 17.4299 11.8399V17.5301H20.4049C20.6111 17.5274 20.8137 17.5836 20.989 17.6923C21.0678 17.7408 21.1355 17.8055 21.1876 17.8819C21.2398 17.9583 21.2754 18.0448 21.2919 18.1359V18.2981C21.2971 18.4059 21.2761 18.5132 21.231 18.6111C21.1858 18.709 21.1176 18.7947 21.0323 18.8607C20.8437 18.9973 20.6161 19.0693 20.3832 19.0662H16.7268C16.4939 19.0812 16.2624 19.0205 16.0669 18.8932C15.892 18.7624 15.7754 18.5682 15.7423 18.3523C15.7344 18.2334 15.7344 18.1141 15.7423 17.9952L15.7099 11.8399ZM21.7247 11.1798C21.5652 11.362 21.4803 11.5976 21.4867 11.8397L21.4218 18.2438C21.4111 18.3228 21.4111 18.4029 21.4218 18.4819C21.4574 18.6741 21.5611 18.8469 21.7139 18.9687C21.8711 19.0918 22.066 19.1568 22.2656 19.1526C22.3851 19.1576 22.5043 19.1381 22.6159 19.0953C22.7275 19.0525 22.8292 18.9873 22.9147 18.9037C23.0742 18.7215 23.1592 18.4859 23.1527 18.2438V16.4373L24.1155 15.4312L26.1276 18.6766C26.211 18.8287 26.3297 18.9585 26.4738 19.0552C26.607 19.1251 26.7562 19.1588 26.9065 19.1526C27.1327 19.1558 27.3535 19.0834 27.534 18.947C27.6299 18.8654 27.7046 18.7618 27.7517 18.645C27.7989 18.5282 27.8169 18.4016 27.8044 18.2763V18.2223C27.7447 18.0404 27.6571 17.8688 27.5448 17.7138V17.6056L25.3812 14.2521L27.177 12.2831C27.2562 12.1937 27.3251 12.0959 27.3825 11.9912C27.4389 11.8923 27.4687 11.7804 27.4691 11.6666C27.4638 11.6416 27.4638 11.6159 27.4691 11.5909C27.4734 11.5695 27.4734 11.5473 27.4691 11.5259C27.4536 11.4386 27.4208 11.3553 27.3725 11.281C27.3242 11.2066 27.2613 11.1427 27.1878 11.0932C27.0317 10.9865 26.8468 10.9299 26.6577 10.9309C26.5284 10.9284 26.401 10.9622 26.2899 11.0283C26.172 11.1223 26.06 11.2234 25.9545 11.3312L23.2176 14.49V11.8397C23.2229 11.7641 23.2229 11.6881 23.2176 11.6124C23.1826 11.4171 23.0791 11.2406 22.9255 11.1148C22.7485 10.9859 22.5323 10.9218 22.3136 10.9337C22.0948 10.9455 21.8869 11.0325 21.7247 11.1798Z" fill="white"/>
</g>
</svg>
