<svg width="32" height="31" viewBox="0 0 32 31" fill="none" xmlns="http://www.w3.org/2000/svg">
<g id="&#236;&#185;&#180;&#236;&#185;&#180;&#236;&#152;&#164;">
<path id="Subtract" fill-rule="evenodd" clip-rule="evenodd" d="M26.5565 2H6.43419C3.58614 2 1.2666 4.32933 1.2666 7.16759V19.6755C1.2666 22.5235 3.59593 24.8431 6.43419 24.8431H13.5396L14.763 26.9571L15.9668 29.0418C16.1821 29.4235 16.7302 29.4235 16.9553 29.0418L18.1591 26.9571L19.3825 24.8431H26.5663C29.4143 24.8431 31.7339 22.5138 31.7339 19.6755V7.17738C31.7339 4.32933 29.4045 2 26.5565 2ZM17.9046 11.1604C16.3485 11.1604 15.0859 12.4034 15.0859 13.94C15.0859 15.4766 16.3485 16.7195 17.9046 16.7195C19.4608 16.7195 20.7233 15.4766 20.7233 13.94C20.7233 12.4034 19.4705 11.1604 17.9046 11.1604ZM17.9046 15.271C17.1608 15.271 16.554 14.674 16.554 13.94C16.554 13.206 17.1608 12.6089 17.9046 12.6089C18.6484 12.6089 19.2552 13.206 19.2552 13.94C19.2552 14.674 18.6582 15.271 17.9046 15.271ZM7.37375 11.7968C7.81417 11.3955 8.38183 11.1606 8.98863 11.1606C10.398 11.1606 11.5235 12.4134 11.5235 13.95C11.5235 15.4865 10.3882 16.7295 8.98863 16.7295C8.37204 16.7295 7.81417 16.4848 7.37375 16.0933V16.5925H5.80782V9.49682H7.37375V11.7968ZM7.38354 14.4883C7.59886 14.9874 8.098 15.33 8.67544 15.33C9.45841 15.33 10.0848 14.7134 10.0848 13.9402C10.0848 13.167 9.45841 12.5504 8.67544 12.5504C8.098 12.5504 7.59886 12.893 7.38354 13.3921C7.30524 13.5585 7.2661 13.7444 7.2661 13.9402C7.2661 14.1359 7.31503 14.3219 7.38354 14.4883ZM25.6071 11.2781V11.7185C25.1667 11.376 24.6186 11.1704 24.0314 11.1704C22.5927 11.1704 21.428 12.3743 21.428 13.8521C21.428 15.33 22.5927 16.5338 24.0314 16.5338C24.6284 16.5338 25.1765 16.3282 25.6071 15.9857V16.7295C25.6071 16.7295 25.4505 17.4635 24.3543 17.4635V18.8435C24.3543 18.8435 25.5386 18.9805 26.5956 17.9235C26.5956 17.9235 27.0849 17.4048 27.1926 16.7197V11.2781H25.6071ZM24.325 15.2125C23.5322 15.2125 22.8961 14.5959 22.8961 13.8423C22.8961 13.0887 23.542 12.4721 24.325 12.4721C24.8828 12.4721 25.3722 12.7853 25.6071 13.2355C25.705 13.4215 25.7539 13.627 25.7539 13.8423C25.7539 14.0576 25.6952 14.273 25.6071 14.4491C25.3722 14.9091 24.8828 15.2125 24.325 15.2125ZM11.6999 10.7788V9.35966C11.6999 9.35966 12.7373 9.22264 13.6573 10.309C13.6573 10.309 14.0781 10.8375 14.176 11.5422V11.5813V16.5923H12.5611V11.5813C12.4241 10.8767 11.6999 10.7788 11.6999 10.7788Z" fill="white"/>
</g>
</svg>
