<svg width="120" height="120" viewBox="0 0 120 120" fill="none" xmlns="http://www.w3.org/2000/svg">
<g id="logo" clip-path="url(#clip0_1052_7423)">
<g id="5">
<path id="Vector" d="M59.5425 0C26.6569 0 0 26.868 0 60C0 93.132 26.6569 120 59.5425 120C92.4282 120 119.103 93.132 119.103 60C119.103 26.868 92.4457 0 59.5425 0ZM94.7507 101.085L94.4164 101.402C84.915 109.636 72.5982 114.633 59.1026 114.633C29.1554 114.633 4.8739 90.176 4.8739 60C4.8739 44.1114 11.6305 29.8592 22.3812 19.8651L22.8739 19.654L23.349 18.9853C32.9032 10.522 45.3959 5.34897 59.1026 5.34897C89.0499 5.34897 113.331 29.8065 113.331 59.9824C113.331 76.3812 106.117 91.0557 94.7683 101.067L94.7507 101.085Z" fill="url(#paint0_linear_1052_7423)"/>
<path id="Vector_2" d="M75.6426 53.7531L69.4138 81.5537L61.4784 58.3455L71.8948 18.5977H65.8772L57.9065 44.8147L50.235 19.0023H44.9564L36.7921 44.8147L29.1206 19.0023H23.2438C22.927 19.3015 22.7159 19.583 22.3816 19.8821L34.8743 68.1636H39.1851L47.3493 35.8762L54.5458 57.976L44.6572 101.366L49.971 101.419L58.5048 75.2897L65.7012 101.419H71.2789L79.2672 75.4657L87.9945 101.419H94.4168C94.5399 101.331 94.6455 101.225 94.7511 101.102L81.4138 53.7707H75.6602L75.6426 53.7531Z" fill="url(#paint1_linear_1052_7423)"/>
</g>
</g>
<defs>
<linearGradient id="paint0_linear_1052_7423" x1="21.3607" y1="21.2727" x2="95.0147" y2="95.9824" gradientUnits="userSpaceOnUse">
<stop offset="0.03" stop-color="#5CAF8E"/>
<stop offset="0.18" stop-color="#58AA8F"/>
<stop offset="0.33" stop-color="#4F9D95"/>
<stop offset="0.49" stop-color="#40889E"/>
<stop offset="0.63" stop-color="#2E6FAA"/>
</linearGradient>
<linearGradient id="paint1_linear_1052_7423" x1="20.7276" y1="21.9056" x2="94.3816" y2="96.5976" gradientUnits="userSpaceOnUse">
<stop offset="0.03" stop-color="#5CAF8E"/>
<stop offset="0.18" stop-color="#58AA8F"/>
<stop offset="0.33" stop-color="#4F9D95"/>
<stop offset="0.49" stop-color="#40889E"/>
<stop offset="0.63" stop-color="#2E6FAA"/>
</linearGradient>
<clipPath id="clip0_1052_7423">
<rect width="119.103" height="120" fill="white"/>
</clipPath>
</defs>
</svg>
