<svg width="545" height="895" viewBox="0 0 545 895" fill="none" xmlns="http://www.w3.org/2000/svg">
<g filter="url(#filter0_d_450_36599)">
<path d="M231.447 194.372L230.741 188.033L215.957 184.751L214.312 180.293L198.587 175.365L191.288 141.408L203.907 132.904L202.761 123.283L184.499 113.408L177.797 98.7706L165.884 97.6243L155.117 90.9819L140.686 94.1855L132.436 77.6871L123.717 73.8074L117.035 83.6242L117.652 91.021L107.689 95.9098L104.75 107.157L94.7172 118.061L81.9123 123.077L80.8738 137.607L73.9569 153.351L61.926 153.527L59.4375 176.57L71.4783 181.743L74.9954 195.175L79.1005 201.896L76.7883 211.046L86.1349 225.488L95.9908 231.562L95.4716 237.117L83.7541 235.02L79.9528 238.42L83.1369 244.69L79.1592 246.767L81.2363 256.799L89.1916 257.495L91.2294 260.777L90.1223 269.83L94.0412 273.229L102.594 270.192L107.708 272.191L106.67 280.499L98.5381 282.919L109.521 297.085L125.833 293.411L142.733 287.073L159.163 298.575L165.737 293.411L183.343 274.395H196.726L201.889 267.351L213.861 257.26L224.187 239.419L224.657 220.638L228.41 208.901L222.933 199.515L231.466 194.352L231.447 194.372ZM133.779 203.405L124.687 202.582L111.451 205.893L102.192 196.135L95.0797 186.211L96.902 179.764L106.493 182.742L108.972 176.453L117.574 176.786L122.042 164.382L131.633 164.049L136.59 177.119L134.768 186.211L144.693 188.533L133.779 203.414V203.405Z" fill="#E6E8EE" stroke="white" stroke-width="3" stroke-linejoin="round"/>
<path d="M244.73 256.36L247.277 243.232L254.938 239.95L266.235 249.434L281.175 242.507L294.666 247.249L297.948 256.36H308.157L316.533 263.287H326.742L354.811 275.308L361.003 268.754L357.731 262.552L363.922 256.723L375.953 265.834L396.733 268.019L402.925 262.552L414.594 266.197L425.89 259.27L436.245 251.305L433.522 236.021L420.864 213.86L404.493 196.646V185.38L393.226 174.583V166.128L339.714 99.4778L328.917 66.618L300.613 10L295.999 11.6165L294.029 40.146L287.632 41.3608L285.378 50.6975L277.59 52.7746L270.154 60.9062L253.195 61.7782L236.069 62.1211L222.911 58.4863H202.161L193.51 62.464L187.975 61.0826L172.397 59.3485L164.265 62.9832L157.868 59.7012L137.793 62.8167L134.335 67.6565L125.518 70.772L123.715 73.4172L132.434 77.2871L140.684 93.7856L155.115 90.5819L165.882 97.2244L177.795 98.3707L184.497 113.008L202.768 122.883L203.915 132.504L191.286 141.008L198.585 174.975L214.309 179.903L215.955 184.361L230.739 187.643L231.445 193.982L222.911 199.145L228.398 208.54L224.636 220.277L224.165 239.049L219.933 246.357L226.87 256.36H244.73Z" fill="#E6E8EE" stroke="white" stroke-width="3" stroke-linejoin="round"/>
<path d="M339.989 269.35L326.743 263.677H316.535L308.158 256.751H297.949L294.667 247.639L281.177 242.897L266.236 249.824L254.94 240.34L247.278 243.622L244.731 256.751H226.871L219.934 246.748L213.84 257.28L201.868 267.371L196.705 274.415H183.332L165.726 293.431L159.152 298.594L142.723 287.093L125.822 293.431L109.51 297.095L104.229 306.462L105.934 316.22L101.016 324.175L96.4504 323.244L95.9312 309.058V296.253L91.0816 287.955L84.5077 286.916L79.4915 284.32L75.602 294.509L71.0757 294.137L68.9399 285.358L61.6998 276.159L55.0867 281.302L58.9076 287.778L52.5002 297.634L54.058 305.257L50.9425 307.5L47.6604 301.269L48.1601 289.522L42.801 290.041L33.0038 303.287L28.9674 313.731L10 316.866L13.0567 331.895L25.8617 330.514L33.4741 323.244L38.3139 329.818L37.7359 338.694L42.2524 338.753L44.5449 324.978L52.8529 325.321V337.088L59.2505 344.22L58.4177 348.286L49.0418 348.854L48.6989 354.732L56.9384 358.73V361.404L50.5996 367.018L56.5661 378.775L66.2653 382.841L66.52 388.993L55.7921 391.07V394.871L65.3052 396.948L65.3444 400.956L54.8124 410.655L55.6157 424.283L72.0554 430.69L71.0757 442.711L75.3277 453.184L101.212 440.928L100.575 431.66L110.157 424.312L129.967 424.949L134.121 431.66L147.543 434.54L163.845 429.749L176.307 449.873L194.197 451.793L207.619 442.212L240.42 447.502L254.773 424.224L261.758 417.287L260.593 405.599L249.914 407.931L237.697 402.112L240.028 385.427L242.742 361.757L233.817 359.043L231.446 351.676L241.194 336.539L254.773 329.563L259.427 322.578L292.404 306.667L297.832 316.758L313.742 310.165L312.194 296.586L330.035 276.159L339.989 269.35Z" fill="#E6E8EE" stroke="white" stroke-width="3" stroke-linejoin="round"/>
<path d="M463.845 437.322L456.007 446.091L448.346 449.02L439.813 440.163L443.291 433.844V420.246L440.126 414.24L440.44 390.208L445.818 386.406L449.61 360.169L443.918 351.313V341.506L451.432 331.385V314.397L446.142 301.817L442.654 276.913L443.085 264.059L436.883 255.241L436.247 251.695L425.891 259.66L414.595 266.587L402.926 262.942L396.734 268.409L375.955 266.224L363.924 257.113L357.732 262.942L361.004 269.144L354.812 275.698L339.989 269.349L330.035 276.158L312.194 296.586L313.742 310.164L297.832 316.758L292.404 306.667L259.427 322.578L254.773 329.563L241.194 336.539L231.446 351.675L233.817 359.043L242.742 361.757L240.028 385.427L237.697 402.111L249.914 407.931L260.593 405.599L261.758 417.287L254.773 424.223L240.42 447.502L242.487 469.016L221.159 472.964L202.378 493.646L195.48 524.008L209.902 547.198L199.938 565.734V584.486L222.913 604.031L224.735 623.743L240.861 626.222L246.426 619.237L256.889 618.727V613.535L260.211 605.423L266.03 602.464L267.235 605.521L264.002 610.693L263.806 627.123L281.275 635.373L285.419 627.682L290.543 627.574L293.658 632.59L298.576 630.905L299.811 625.428L303.73 626.212L305.591 634.775L312.498 634.873L315.202 628.015L311.597 623.929L316.29 617.669L323.569 616.777L322.178 609.978L312.42 611.771L310.598 616.777L306.963 614.955L308.452 608.352L318.67 605.481L320.091 599.123L331.759 600.171L340.577 608.058L343.359 603.933L336.305 596.987L336.364 590.864L330.594 587.494L335.629 579.47L339.617 581.125L337.569 586.534L358.251 600.357L370.272 599.515L370.517 603.728L382.715 600.857L381.333 596.997L388.407 592.441L390.68 594.254L388.181 602.219L391.591 606.765L407.913 598.986L411.038 590.981L421.257 587.014L430.633 564.764L436.158 561.355L441.792 557.887L441.88 537.371L455.576 521.353L456.928 504.825L458.467 486.014L463.816 474.953L464.658 460.042L470.791 439.723L463.845 437.322Z" fill="#E6E8EE" stroke="white" stroke-width="3" stroke-linejoin="round"/>
<path d="M347 572L339 580.5V587L357 600H369.5V605.5L381 600V593H385H390.5L387.5 600L390.5 605.5L406.5 600L410.5 593L421.5 587L431 568L441.5 558V537.5L421.5 526L394 530L375.5 554.5L347 572Z" fill="#E6E8EE" stroke="white" stroke-width="3"/>
<path d="M199.937 584.487V565.735L209.901 547.199L195.48 524.009L202.377 493.647L221.158 472.965L242.487 469.017L240.419 447.502L207.618 442.212L194.196 451.794L176.307 449.873L163.845 429.75L147.542 434.541L134.12 431.66L129.966 424.949L110.156 424.312L100.574 431.66L101.211 440.929L75.3269 453.185L68.5081 462.11L78.56 470.898L83.919 466L95.852 464.285L93.3831 470.624L84.0562 472.769L80.8721 477.364L90.8848 482.949L89.8072 489.425L72.5151 492.971L47.0522 509.636L52.1467 519.669L55.8501 516.436H71.2807L76.9336 520.707L75.9147 526.615L69.5857 524.146L50.4518 528.31L41.0465 540.106L41.507 552.95L29.0352 568.841L31.3179 584.644L44.1228 602.847L36.5202 622.52L35.9422 657.015L55.5464 671.77L51.794 690.718L45.5434 698.791L45.034 708.705L49.2664 712.517L49.1782 717.778L46.7779 723.156L51.5295 727.379L51.2062 735.148L62.3358 732.473L63.247 722.186L71.2611 713.624L83.3312 706.609L83.1745 696.528L86.4075 686.828H91.218L90.297 697.458L91.1984 708.754L106.335 712.879L108.628 702.259L116.495 689.572L124.568 681.097L140.488 673.798L144.956 667.645L142.957 663.051L150.765 658.367L154.919 661.336L173.975 655.703L174.827 650.54L168.968 648.992L169.938 644.877L183.782 645.905L198.585 632.679L207.266 633.61L224.734 623.744L222.912 604.032L199.937 584.487Z" fill="#E6E8EE" stroke="white" stroke-width="3" stroke-linejoin="round"/>
<path d="M144.017 766.547L105.847 768.419L87.6928 777.491H71.9487L52.7266 801.249L65.8058 821H79.4239L87.9671 813.525L109.589 814.328L125.598 808.185L145.888 800.72L157.361 781.498L144.017 766.547Z" fill="#E6E8EE" stroke="white" stroke-width="3" stroke-linejoin="round"/>
<path d="M142.224 174.491L135.63 157L122.86 157.446L116.931 174.045L105.49 173.599L102.181 182.017L89.4237 178.031L87 186.659L96.4732 199.941L108.787 213L126.392 208.581L138.484 209.683L153 189.766L139.8 186.659L142.224 174.491Z" fill="#980D0D" stroke="white" stroke-width="3" stroke-linejoin="round"/>
</g>
<defs>
<filter id="filter0_d_450_36599" x="0.5" y="0.499756" width="543.793" height="894" filterUnits="userSpaceOnUse" color-interpolation-filters="sRGB">
<feFlood flood-opacity="0" result="BackgroundImageFix"/>
<feColorMatrix in="SourceAlpha" type="matrix" values="0 0 0 0 0 0 0 0 0 0 0 0 0 0 0 0 0 0 127 0" result="hardAlpha"/>
<feOffset dx="32" dy="32"/>
<feGaussianBlur stdDeviation="20"/>
<feComposite in2="hardAlpha" operator="out"/>
<feColorMatrix type="matrix" values="0 0 0 0 0.847309 0 0 0 0 0.858092 0 0 0 0 0.895833 0 0 0 0.24 0"/>
<feBlend mode="normal" in2="BackgroundImageFix" result="effect1_dropShadow_450_36599"/>
<feBlend mode="normal" in="SourceGraphic" in2="effect1_dropShadow_450_36599" result="shape"/>
</filter>
</defs>
</svg>
