<svg width="24" height="24" viewBox="0 0 24 24" fill="none" xmlns="http://www.w3.org/2000/svg">
    <mask id="iz4008m95a" style="mask-type:alpha" maskUnits="userSpaceOnUse" x="0" y="0" width="24" height="24">
        <path fill="#D9D9D9" d="M0 0h24v24H0z"/>
    </mask>
    <g mask="url(#iz4008m95a)">
        <path d="M2.625 18.175 1 17l5-8 3 3.5L13 6l2.725 4.075a6.36 6.36 0 0 0-1.088.138c-.341.075-.679.179-1.012.312l-.55-.825-3.8 6.175L6.25 12.35l-3.625 5.825zM21.575 23l-3.125-3.125a3.695 3.695 0 0 1-1.113.525c-.408.117-.829.175-1.262.175-1.25 0-2.313-.438-3.188-1.313s-1.312-1.937-1.312-3.187c0-1.25.438-2.313 1.313-3.188.874-.875 1.937-1.312 3.187-1.312 1.25 0 2.313.438 3.188 1.313.874.874 1.312 1.937 1.312 3.187 0 .433-.058.854-.175 1.262a4.04 4.04 0 0 1-.525 1.138l3.125 3.1L21.575 23zm-5.5-4.425c.7 0 1.292-.242 1.775-.725.483-.483.725-1.075.725-1.775s-.242-1.292-.725-1.775c-.483-.483-1.075-.725-1.775-.725s-1.292.242-1.775.725c-.483.483-.725 1.075-.725 1.775s.242 1.292.725 1.775c.483.483 1.075.725 1.775.725zm2.225-8a6.524 6.524 0 0 0-.988-.325 5.54 5.54 0 0 0-1.062-.15L21.375 2 23 3.175l-4.7 7.4z" fill="#fff"/>
    </g>
</svg>
