<svg width="24" height="24" viewBox="0 0 24 24" fill="none" xmlns="http://www.w3.org/2000/svg">
    <mask id="4ujrpj71oa" style="mask-type:alpha" maskUnits="userSpaceOnUse" x="0" y="0" width="24" height="24">
        <path fill="#D9D9D9" d="M0 0h24v24H0z"/>
    </mask>
    <g mask="url(#4ujrpj71oa)">
        <path d="m9.25 22-.4-3.2a3.79 3.79 0 0 1-.612-.3 8.27 8.27 0 0 1-.563-.375L4.7 19.375l-2.75-4.75 2.575-1.95a2.389 2.389 0 0 1-.025-.338v-.675c0-.108.008-.22.025-.337L1.95 9.375l2.75-4.75 2.975 1.25c.183-.133.375-.258.575-.375.2-.117.4-.217.6-.3l.4-3.2h5.5l.4 3.2c.217.083.42.183.612.3.192.117.38.242.563.375l2.975-1.25 2.75 4.75-2.575 1.95c.017.117.025.23.025.338v.675c0 .108-.017.22-.05.337l2.575 1.95-2.75 4.75-2.95-1.25a6.826 6.826 0 0 1-.575.375c-.2.117-.4.217-.6.3l-.4 3.2h-5.5zm2.8-6.5c.967 0 1.792-.342 2.475-1.025A3.372 3.372 0 0 0 15.55 12c0-.967-.342-1.792-1.025-2.475A3.372 3.372 0 0 0 12.05 8.5c-.983 0-1.813.342-2.487 1.025A3.393 3.393 0 0 0 8.55 12c0 .967.338 1.792 1.013 2.475.675.683 1.504 1.025 2.487 1.025zm0-2c-.417 0-.77-.146-1.063-.438A1.446 1.446 0 0 1 10.55 12c0-.417.146-.77.438-1.063a1.446 1.446 0 0 1 1.062-.437c.417 0 .77.146 1.063.438.291.291.437.645.437 1.062 0 .417-.146.77-.438 1.063a1.446 1.446 0 0 1-1.062.437zM11 20h1.975l.35-2.65c.517-.133.996-.33 1.438-.588.441-.258.845-.57 1.212-.937l2.475 1.025.975-1.7-2.15-1.625c.083-.233.142-.48.175-.738a6.153 6.153 0 0 0 0-1.575 3.529 3.529 0 0 0-.175-.737l2.15-1.625-.975-1.7-2.475 1.05a5.554 5.554 0 0 0-1.213-.962 5.605 5.605 0 0 0-1.437-.588L13 4h-1.975l-.35 2.65c-.517.133-.996.33-1.437.587-.442.259-.846.571-1.213.938L5.55 7.15l-.975 1.7 2.15 1.6c-.083.25-.142.5-.175.75s-.05.517-.05.8c0 .267.017.525.05.775s.092.5.175.75l-2.15 1.625.975 1.7 2.475-1.05c.367.383.77.704 1.213.962.441.259.92.455 1.437.588L11 20z" fill="#fff"/>
    </g>
</svg>
