<svg width="24" height="24" viewBox="0 0 24 24" fill="none" xmlns="http://www.w3.org/2000/svg">
    <mask id="zfn8awoc0a" style="mask-type:alpha" maskUnits="userSpaceOnUse" x="0" y="0" width="24" height="24">
        <path fill="#D9D9D9" d="M0 0h24v24H0z"/>
    </mask>
    <g mask="url(#zfn8awoc0a)">
        <path d="M16.65 13 11 7.35l5.65-5.65 5.65 5.65L16.65 13zM3 11V3h8v8H3zm10 10v-8h8v8h-8zM3 21v-8h8v8H3zM5 9h4V5H5v4zm11.675 1.2L19.5 7.375 16.675 4.55 13.85 7.375l2.825 2.825zM15 19h4v-4h-4v4zM5 19h4v-4H5v4z" fill="#fff"/>
    </g>
</svg>
