<svg width="24" height="24" viewBox="0 0 24 24" fill="none" xmlns="http://www.w3.org/2000/svg">
    <mask id="4zemwpzuka" style="mask-type:alpha" maskUnits="userSpaceOnUse" x="0" y="0" width="24" height="24">
        <path fill="#D9D9D9" d="M0 0h24v24H0z"/>
    </mask>
    <g mask="url(#4zemwpzuka)">
        <mask id="cw21ede1ob" style="mask-type:alpha" maskUnits="userSpaceOnUse" x="0" y="0" width="24" height="24">
            <path fill="#D9D9D9" d="M0 0h24v24H0z"/>
        </mask>
        <g mask="url(#cw21ede1ob)">
            <path d="M6 21c-.75 0-1.492-.184-2.225-.55C3.042 20.083 2.45 19.6 2 19c.433 0 .875-.171 1.325-.513C3.775 18.146 4 17.65 4 17c0-.834.292-1.542.875-2.125A2.893 2.893 0 0 1 7 14c.833 0 1.542.291 2.125.875.583.583.875 1.291.875 2.125 0 1.1-.392 2.041-1.175 2.825C8.042 20.608 7.1 21 6 21zm0-2c.55 0 1.02-.196 1.412-.588C7.804 18.021 8 17.55 8 17a.968.968 0 0 0-.287-.713A.968.968 0 0 0 7 16a.968.968 0 0 0-.713.287A.968.968 0 0 0 6 17c0 .383-.046.733-.138 1.05a4.725 4.725 0 0 1-.362.9c.083.033.167.05.25.05H6zm5.75-4L9 12.25l8.95-8.95a.977.977 0 0 1 .688-.288.93.93 0 0 1 .712.288l1.35 1.35c.2.2.3.433.3.7 0 .266-.1.5-.3.7L11.75 15z" fill="#fff"/>
        </g>
    </g>
</svg>
