<svg width="24" height="24" viewBox="0 0 24 24" fill="none" xmlns="http://www.w3.org/2000/svg">
    <mask id="6ovi73pula" style="mask-type:alpha" maskUnits="userSpaceOnUse" x="0" y="0" width="24" height="24">
        <path fill="#D9D9D9" d="M0 0h24v24H0z"/>
    </mask>
    <g mask="url(#6ovi73pula)">
        <path d="M5 21c-.55 0-1.02-.196-1.413-.587A1.926 1.926 0 0 1 3 19V5c0-.55.196-1.02.587-1.413A1.926 1.926 0 0 1 5 3h4.2c.217-.6.58-1.083 1.088-1.45A2.857 2.857 0 0 1 12 1c.633 0 1.204.183 1.713.55.508.367.87.85 1.087 1.45H19c.55 0 1.02.196 1.413.587C20.803 3.98 21 4.45 21 5v14c0 .55-.196 1.02-.587 1.413A1.926 1.926 0 0 1 19 21H5zm0-2h14V5H5v14zm2-2h7v-2H7v2zm0-4h10v-2H7v2zm0-4h10V7H7v2zm5-4.75a.728.728 0 0 0 .75-.75.728.728 0 0 0-.75-.75.728.728 0 0 0-.75.75.728.728 0 0 0 .75.75z" fill="#fff"/>
    </g>
</svg>
