<svg width="20" height="20" viewBox="0 0 20 20" fill="none" xmlns="http://www.w3.org/2000/svg">
    <mask id="kaaxg822ia" style="mask-type:alpha" maskUnits="userSpaceOnUse" x="0" y="0" width="20" height="20">
        <path fill="#D9D9D9" d="M0 0h20v20H0z"/>
    </mask>
    <g mask="url(#kaaxg822ia)">
        <path d="m15.873 15.931-1.77 1.758-.879-.878 1.758-1.77-1.758-1.772.878-.878 1.771 1.758 1.771-1.758.878.878-1.758 1.771 1.758 1.77-.878.88-1.77-1.759zM5 17.917a2.011 2.011 0 0 1-1.479-.605 2.011 2.011 0 0 1-.604-1.479V13.43h2.5V2.083h11.666v8.197a3.633 3.633 0 0 0-.612-.142 4.471 4.471 0 0 0-.638-.045v-6.76H6.666V13.43h4.53a4.367 4.367 0 0 0-.243 1.25H4.166v1.153c0 .237.08.434.24.594.16.16.358.24.594.24h6.197c.079.239.18.461.3.667.122.206.259.4.412.583h-6.91zM7.66 7.244v-1.25h7.18v1.25H7.66zm0 2.403v-1.25h7.18v1.25H7.66zm3.537 7.02h-7.03 6.786-.017.26z" fill="#999"/>
    </g>
</svg>
