<svg width="24" height="24" viewBox="0 0 24 24" fill="none" xmlns="http://www.w3.org/2000/svg">
    <mask id="g1k3i6fh6a" style="mask-type:alpha" maskUnits="userSpaceOnUse" x="0" y="0" width="24" height="24">
        <path fill="#D9D9D9" d="M0 0h24v24H0z"/>
    </mask>
    <g mask="url(#g1k3i6fh6a)">
        <path d="M5.308 20.5c-.505 0-.933-.175-1.283-.525a1.745 1.745 0 0 1-.525-1.283V5.308c0-.505.175-.933.525-1.283.35-.35.778-.525 1.283-.525h13.384c.505 0 .933.175 1.283.525.35.35.525.778.525 1.283v13.384c0 .505-.175.933-.525 1.283-.35.35-.778.525-1.283.525H5.308zm0-1.5h13.384a.294.294 0 0 0 .212-.096.294.294 0 0 0 .096-.212V5.308a.294.294 0 0 0-.096-.212.294.294 0 0 0-.212-.096H5.308a.294.294 0 0 0-.212.096.294.294 0 0 0-.096.212v13.384c0 .077.032.148.096.212a.294.294 0 0 0 .212.096z" fill="#DDD"/>
    </g>
    <mask id="vqetq4k6nb" style="mask-type:alpha" maskUnits="userSpaceOnUse" x="0" y="0" width="24" height="24">
        <path fill="#D9D9D9" d="M0 0h24v24H0z"/>
    </mask>
    <g mask="url(#vqetq4k6nb)">
        <path d="m10.6 15.854 6.723-6.723-1.054-1.054-5.669 5.67-2.85-2.85-1.054 1.053 3.904 3.904zM5.308 20.5c-.505 0-.933-.175-1.283-.525a1.745 1.745 0 0 1-.525-1.283V5.308c0-.505.175-.933.525-1.283.35-.35.778-.525 1.283-.525h13.384c.505 0 .933.175 1.283.525.35.35.525.778.525 1.283v13.384c0 .505-.175.933-.525 1.283-.35.35-.778.525-1.283.525H5.308z" fill="#4F46E5"/>
    </g>
</svg>
