<svg width="24" height="24" viewBox="0 0 24 24" fill="none" xmlns="http://www.w3.org/2000/svg">
    <mask id="elemuvb7sa" style="mask-type:alpha" maskUnits="userSpaceOnUse" x="0" y="0" width="24" height="24">
        <path fill="#D9D9D9" d="M0 0h24v24H0z"/>
    </mask>
    <g mask="url(#elemuvb7sa)">
        <path d="M9 19.616c-.444 0-.824-.159-1.14-.475a1.556 1.556 0 0 1-.475-1.14c0-.445.158-.825.474-1.142A1.555 1.555 0 0 1 9 16.385c.444 0 .825.158 1.141.474.316.317.475.697.475 1.141 0 .444-.159.825-.475 1.141a1.556 1.556 0 0 1-1.14.475zm6 0c-.444 0-.824-.159-1.14-.475a1.555 1.555 0 0 1-.475-1.14c0-.445.158-.825.474-1.142A1.555 1.555 0 0 1 15 16.385c.444 0 .825.158 1.141.474.316.317.475.697.475 1.141 0 .444-.159.825-.475 1.141a1.556 1.556 0 0 1-1.14.475zm-6-6c-.444 0-.824-.159-1.14-.475a1.556 1.556 0 0 1-.475-1.14c0-.445.158-.825.474-1.142A1.555 1.555 0 0 1 9 10.385c.444 0 .825.158 1.141.474.316.317.475.697.475 1.141 0 .444-.159.825-.475 1.141a1.556 1.556 0 0 1-1.14.475zm6 0c-.444 0-.824-.159-1.14-.475a1.555 1.555 0 0 1-.475-1.14c0-.445.158-.825.474-1.142A1.555 1.555 0 0 1 15 10.385c.444 0 .825.158 1.141.474.316.317.475.697.475 1.141 0 .444-.159.825-.475 1.141a1.556 1.556 0 0 1-1.14.475zm-6-6c-.444 0-.824-.159-1.14-.475a1.556 1.556 0 0 1-.475-1.14c0-.445.158-.825.474-1.142A1.556 1.556 0 0 1 9 4.385c.444 0 .825.158 1.141.474.316.317.475.697.475 1.141 0 .444-.159.825-.475 1.141a1.556 1.556 0 0 1-1.14.474zm6 0c-.444 0-.824-.159-1.14-.475a1.555 1.555 0 0 1-.475-1.14c0-.445.158-.825.474-1.142A1.555 1.555 0 0 1 15 4.385c.444 0 .825.158 1.141.474.316.317.475.697.475 1.141 0 .444-.159.825-.475 1.141a1.556 1.556 0 0 1-1.14.474z" fill="#999"/>
    </g>
</svg>
