<svg width="24" height="24" viewBox="0 0 24 24" fill="none" xmlns="http://www.w3.org/2000/svg">
    <mask id="tbuyya837a" style="mask-type:alpha" maskUnits="userSpaceOnUse" x="0" y="0" width="24" height="24">
        <path fill="#D9D9D9" d="M0 0h24v24H0z"/>
    </mask>
    <g mask="url(#tbuyya837a)">
        <path d="M11.5 21.885c-1.463 0-2.707-.513-3.732-1.538-1.025-1.025-1.537-2.269-1.537-3.732V5.809c0-1.053.375-1.954 1.124-2.703.75-.75 1.65-1.124 2.703-1.124 1.052 0 1.953.375 2.703 1.124.75.75 1.124 1.65 1.124 2.703v9.75c0 .667-.23 1.232-.692 1.693a2.303 2.303 0 0 1-1.693.691c-.668 0-1.232-.23-1.693-.691a2.303 2.303 0 0 1-.691-1.693v-9.75h1.192v9.75c0 .338.114.62.343.85.228.228.511.342.85.342.337 0 .62-.114.849-.343.228-.228.343-.511.343-.85v-9.75c0-.737-.255-1.36-.765-1.87s-1.133-.764-1.87-.764c-.739 0-1.362.255-1.871.764-.51.51-.764 1.133-.764 1.87v10.809c0 1.125.398 2.086 1.194 2.882.797.796 1.757 1.194 2.883 1.194 1.126 0 2.087-.398 2.883-1.194.796-.796 1.194-1.757 1.194-2.883V5.809h1.192v10.808c0 1.462-.512 2.706-1.537 3.731s-2.269 1.538-3.732 1.538z" fill="#999"/>
    </g>
</svg>
