<svg width="20" height="20" viewBox="0 0 20 20" fill="none" xmlns="http://www.w3.org/2000/svg">
    <mask id="41bt2ii2ca" style="mask-type:alpha" maskUnits="userSpaceOnUse" x="0" y="0" width="20" height="20">
        <path transform="matrix(1 0 0 -1 0 20)" fill="#D9D9D9" d="M0 0h20v20H0z"/>
    </mask>
    <g mask="url(#41bt2ii2ca)">
        <path d="M6.034 3.75v7.036c0 .415.147.77.441 1.065.295.294.65.441 1.065.441h7.162l-1.542 1.542.879.878 3.044-3.045-3.044-3.045-.879.878 1.542 1.542H7.54a.25.25 0 0 1-.184-.072.25.25 0 0 1-.072-.184V3.75h-1.25z" fill="#4F46E5"/>
    </g>
</svg>
