<svg width="24" height="24" viewBox="0 0 24 24" fill="none" xmlns="http://www.w3.org/2000/svg">
    <mask id="kiy7achmla" style="mask-type:alpha" maskUnits="userSpaceOnUse" x="0" y="0" width="24" height="24">
        <path transform="matrix(1 0 0 -1 0 24)" fill="#D9D9D9" d="M0 0h24v24H0z"/>
    </mask>
    <g mask="url(#kiy7achmla)">
        <path d="M7.24 4.5v8.443c0 .498.177.924.53 1.278.353.353.78.53 1.278.53h8.594l-1.85 1.85 1.054 1.053 3.654-3.653-3.654-3.654-1.054 1.053 1.85 1.85H9.048a.3.3 0 0 1-.221-.086.3.3 0 0 1-.087-.221V4.5h-1.5z" fill="#999"/>
    </g>
</svg>
