<svg width="24" height="24" viewBox="0 0 24 24" fill="none" xmlns="http://www.w3.org/2000/svg">
    <mask id="olmxw21e4a" style="mask-type:alpha" maskUnits="userSpaceOnUse" x="0" y="0" width="24" height="24">
        <path fill="#D9D9D9" d="M0 0h24v24H0z"/>
    </mask>
    <g mask="url(#olmxw21e4a)">
        <path d="M5.308 21.5c-.505 0-.933-.175-1.283-.525a1.745 1.745 0 0 1-.525-1.283V6.308c0-.505.175-.933.525-1.283.35-.35.778-.525 1.283-.525h1.384V2.385h1.539V4.5h7.577V2.385h1.5V4.5h1.384c.505 0 .933.175 1.283.525.35.35.525.778.525 1.283v13.384c0 .505-.175.933-.525 1.283-.35.35-.778.525-1.283.525H5.308zm0-1.5h13.384a.294.294 0 0 0 .212-.096.294.294 0 0 0 .096-.212v-9.384H5v9.384c0 .077.032.148.096.212a.294.294 0 0 0 .212.096zM5 8.808h14v-2.5a.294.294 0 0 0-.096-.212.294.294 0 0 0-.212-.096H5.308a.294.294 0 0 0-.212.096.294.294 0 0 0-.096.212v2.5z" fill="#4F46E5"/>
    </g>
</svg>
