<svg width="20" height="20" viewBox="0 0 20 20" fill="none" xmlns="http://www.w3.org/2000/svg">
    <mask id="blvw2plpqa" style="mask-type:alpha" maskUnits="userSpaceOnUse" x="0" y="0" width="20" height="20">
        <path fill="#D9D9D9" d="M0 0h20v20H0z"/>
    </mask>
    <g mask="url(#blvw2plpqa)">
        <path d="M5 17.917a2.011 2.011 0 0 1-1.479-.605 2.011 2.011 0 0 1-.604-1.479V13.43h2.5V2.083h11.666V9.17a2.14 2.14 0 0 0-.631-.035c-.213.02-.42.07-.619.149v-5.95H6.666V13.43h4.632l-1.25 1.25H4.166v1.153c0 .237.08.434.24.594.16.16.358.24.594.24h4.84v1.25H5zm6.666 0v-2.278l3.504-3.503.711.704-3.221 3.208v.875h.875l3.221-3.208.699.699-3.503 3.503h-2.286zm5.789-3.504-2.285-2.277.985-.985a.736.736 0 0 1 .531-.206c.213 0 .387.069.524.206l1.23 1.23a.709.709 0 0 1 .206.524c0 .212-.069.389-.206.53l-.985.979zM7.66 7.244v-1.25h7.18v1.25H7.66zm0 2.404v-1.25h7.18v1.25H7.66z" fill="#999"/>
    </g>
</svg>
