<svg width="25" height="24" viewBox="0 0 25 24" fill="none" xmlns="http://www.w3.org/2000/svg">
    <mask id="v84lkhid2a" style="mask-type:alpha" maskUnits="userSpaceOnUse" x="0" y="0" width="25" height="24">
        <path fill="#D9D9D9" d="M.666 0h24v24h-24z"/>
    </mask>
    <g mask="url(#v84lkhid2a)">
        <path d="M11.916 18.385h1.5V13.95l1.85 1.85 1.054-1.07-3.654-3.653-3.654 3.654 1.07 1.054 1.834-1.835v4.435zM6.974 21.5c-.505 0-.933-.175-1.283-.525a1.745 1.745 0 0 1-.525-1.283V4.308c0-.505.175-.933.525-1.283.35-.35.778-.525 1.283-.525h7.942l5.25 5.25v11.942c0 .505-.175.933-.525 1.283-.35.35-.778.525-1.283.525H6.974zm7.192-13V4H6.974a.294.294 0 0 0-.212.096.294.294 0 0 0-.096.212v15.384c0 .077.032.148.096.212a.294.294 0 0 0 .212.096h11.384a.294.294 0 0 0 .212-.096.294.294 0 0 0 .096-.212V8.5h-4.5z" fill="#DDD"/>
    </g>
</svg>
