<svg width="61" height="61" viewBox="0 0 61 61" fill="none" xmlns="http://www.w3.org/2000/svg">
    <mask id="q36g47sn6a" style="mask-type:alpha" maskUnits="userSpaceOnUse" x="0" y="0" width="61" height="61">
        <path fill="#D9D9D9" d="M.945.226h60v60h-60z"/>
    </mask>
    <g mask="url(#q36g47sn6a)">
        <path d="m44.82 29.336-7.985-7.985 2.673-2.61 5.312 5.312 10.625-10.625L58.08 16.1 44.82 29.336zm-21.375.12c-2.406 0-4.466-.856-6.18-2.57-1.713-1.713-2.57-3.773-2.57-6.18 0-2.406.857-4.466 2.57-6.18 1.714-1.713 3.774-2.57 6.18-2.57 2.406 0 4.466.857 6.18 2.57 1.713 1.714 2.57 3.774 2.57 6.18 0 2.407-.857 4.467-2.57 6.18-1.714 1.714-3.774 2.57-6.18 2.57zM4.695 48.495v-5.558c0-1.224.333-2.358.998-3.401a6.66 6.66 0 0 1 2.666-2.407c2.47-1.211 4.964-2.12 7.478-2.725a32.377 32.377 0 0 1 7.608-.909c2.558 0 5.094.303 7.608.909 2.515.605 5.007 1.514 7.479 2.725a6.66 6.66 0 0 1 2.666 2.407 6.206 6.206 0 0 1 .997 3.401v5.558h-37.5zm3.75-3.75h30v-1.808a2.45 2.45 0 0 0-.44-1.406 3.332 3.332 0 0 0-1.194-1.055 32.129 32.129 0 0 0-6.59-2.411 28.48 28.48 0 0 0-6.776-.82c-2.28 0-4.538.273-6.777.82a32.128 32.128 0 0 0-6.588 2.41 3.331 3.331 0 0 0-1.195 1.056c-.293.431-.44.9-.44 1.406v1.808zm15-19.038c1.375 0 2.552-.49 3.531-1.47.98-.978 1.47-2.155 1.47-3.53 0-1.376-.49-2.553-1.47-3.532-.979-.979-2.156-1.469-3.53-1.469-1.376 0-2.553.49-3.532 1.47-.98.978-1.469 2.155-1.469 3.53s.49 2.553 1.469 3.532c.98.979 2.156 1.468 3.531 1.468z" fill="#4F46E5"/>
    </g>
</svg>
