<svg width="32" height="32" viewBox="0 0 32 32" fill="none" xmlns="http://www.w3.org/2000/svg">
    <mask id="2h25k19kpa" style="mask-type:alpha" maskUnits="userSpaceOnUse" x="0" y="0" width="32" height="32">
        <path fill="#D9D9D9" d="M0 0h32v32H0z"/>
    </mask>
    <g mask="url(#2h25k19kpa)">
        <path d="M8.41 28.667a2.322 2.322 0 0 1-1.704-.707A2.322 2.322 0 0 1 6 26.257V13.744c0-.665.235-1.233.706-1.704a2.322 2.322 0 0 1 1.704-.706H10V8.667c0-1.665.584-3.081 1.751-4.249C12.92 3.251 14.335 2.667 16 2.667c1.665 0 3.081.584 4.249 1.751 1.167 1.168 1.75 2.584 1.75 4.249v2.667h1.59c.666 0 1.234.235 1.705.706.47.471.706 1.039.706 1.704v12.513c0 .665-.235 1.232-.706 1.703a2.322 2.322 0 0 1-1.704.707H8.41zm0-2h15.18a.4.4 0 0 0 .295-.116.4.4 0 0 0 .115-.294V13.744a.4.4 0 0 0-.115-.295.4.4 0 0 0-.295-.115H8.41a.4.4 0 0 0-.295.115.4.4 0 0 0-.115.295v12.513a.4.4 0 0 0 .115.294.4.4 0 0 0 .295.116zM16 22.333a2.25 2.25 0 0 0 1.652-.68A2.25 2.25 0 0 0 18.334 20a2.25 2.25 0 0 0-.68-1.652A2.25 2.25 0 0 0 16 17.667a2.25 2.25 0 0 0-1.653.68 2.25 2.25 0 0 0-.68 1.653c0 .648.227 1.199.68 1.653a2.25 2.25 0 0 0 1.653.68zm-4-11h8V8.668c0-1.111-.389-2.056-1.167-2.833-.777-.778-1.722-1.167-2.833-1.167-1.111 0-2.056.389-2.833 1.167C12.389 6.61 12 7.556 12 8.667v2.667z" fill="#222"/>
    </g>
</svg>
