<svg width="24" height="24" viewBox="0 0 24 24" fill="none" xmlns="http://www.w3.org/2000/svg">
    <mask id="xwj35nmw2a" style="mask-type:alpha" maskUnits="userSpaceOnUse" x="0" y="0" width="24" height="24">
        <path fill="#D9D9D9" d="M0 0h24v24H0z"/>
    </mask>
    <g mask="url(#xwj35nmw2a)">
        <path d="M6.308 21.5c-.499 0-.925-.176-1.278-.53a1.742 1.742 0 0 1-.53-1.277v-9.385c0-.499.177-.925.53-1.278.353-.353.779-.53 1.278-.53H7.5v-2c0-1.248.438-2.31 1.313-3.186C9.69 2.438 10.751 2 12 2c1.249 0 2.31.438 3.187 1.314.875.876 1.313 1.938 1.313 3.186v2h1.192c.499 0 .925.177 1.278.53.353.353.53.78.53 1.278v9.385c0 .498-.177.924-.53 1.278-.353.353-.779.53-1.278.53H6.308zm0-1.5h11.384a.3.3 0 0 0 .221-.086.3.3 0 0 0 .087-.221v-9.385a.3.3 0 0 0-.087-.221.3.3 0 0 0-.22-.087H6.307a.3.3 0 0 0-.221.087.3.3 0 0 0-.087.221v9.385a.3.3 0 0 0 .087.22.3.3 0 0 0 .22.087zM12 16.75c.486 0 .899-.17 1.24-.51.34-.34.51-.754.51-1.24s-.17-.899-.51-1.239c-.341-.34-.754-.51-1.24-.51s-.9.17-1.24.51c-.34.34-.51.754-.51 1.24 0 .485.17.898.51 1.239.34.34.754.51 1.24.51zM9 8.5h6v-2c0-.833-.292-1.541-.875-2.125A2.893 2.893 0 0 0 12 3.5c-.833 0-1.542.292-2.125.875A2.893 2.893 0 0 0 9 6.5v2z" fill="#222"/>
    </g>
</svg>
