<svg width="20" height="20" viewBox="0 0 20 20" fill="none" xmlns="http://www.w3.org/2000/svg">
    <mask id="kmpw0wzoia" style="mask-type:alpha" maskUnits="userSpaceOnUse" x="0" y="0" width="20" height="20">
        <path fill="#D9D9D9" d="M0 0h20v20H0z"/>
    </mask>
    <g mask="url(#kmpw0wzoia)">
        <path d="M7.628 11.955v-.994h4.744v.994H7.628zm-.833-2.5v-.993h6.41v.993h-6.41zM6.09 18.75c-.421 0-.777-.146-1.07-.438a1.454 1.454 0 0 1-.437-1.069V2.757c0-.42.146-.777.438-1.068A1.454 1.454 0 0 1 6.09 1.25h7.82c.421 0 .777.146 1.07.438.29.291.437.647.437 1.068v14.488c0 .42-.146.777-.438 1.069a1.454 1.454 0 0 1-1.069.437H6.09zm-.257-2.292v.786c0 .064.027.122.08.176.054.053.113.08.177.08h7.82a.245.245 0 0 0 .176-.08.245.245 0 0 0 .08-.176v-.786H5.834zm0-1.25h8.334V4.792H5.833v10.416zm0-11.666h8.334v-.786a.245.245 0 0 0-.08-.176.245.245 0 0 0-.177-.08H6.09a.245.245 0 0 0-.177.08.245.245 0 0 0-.08.176v.786z" fill="#4F46E5"/>
    </g>
</svg>
