<svg width="42" height="42" viewBox="0 0 42 42" fill="none" xmlns="http://www.w3.org/2000/svg">
    <path d="M9.834 25.476c-.685.187-1.352.396-1.984.62-1.655.59-3.045 1.286-4.131 2.066C1.473 29.777 1 31.432 1 32.536c0 4.81 8.598 8.436 20 8.436s20-3.626 20-8.437c0-1.104-.473-2.758-2.72-4.373-1.085-.778-2.475-1.475-4.13-2.064a28.399 28.399 0 0 0-1.984-.622" stroke="#222" stroke-width="2" stroke-miterlimit="10" stroke-linecap="round" stroke-linejoin="round"/>
    <path d="M16.405 27.865c1.287 1.991 3.854 4.712 3.854 4.712a1.014 1.014 0 0 0 1.485.004s2.474-2.595 3.736-4.539a71.955 71.955 0 0 0 2.585-4.272c2.775-5.011 3.787-8.706 3.787-12.314C31.852 5.681 26.772 1 20.998 1c-5.775 0-10.854 4.681-10.854 10.455 0 3.392.893 6.86 3.307 11.425.808 1.526 1.784 3.175 2.954 4.985zM21 7.341a4.316 4.316 0 0 1 0 8.63 4.315 4.315 0 0 1 0-8.63z" stroke="#222" stroke-width="2" stroke-miterlimit="10" stroke-linecap="round" stroke-linejoin="round"/>
</svg>
