<svg width="49" height="31" viewBox="0 0 49 31" fill="none" xmlns="http://www.w3.org/2000/svg">
    <path d="M37.737 30.16c-.005-1.32.009-2.642.004-3.96-.013-3.158-4.527-4.511-6.885-5.879-.833-.482-1.653-.84-1.653-1.956v-4.44c0-.225.444-.793.531-1.029.47-1.27.626-2.725.626-4.072 0-2.756-.371-6.008-3.239-7.291C26.309 1.167 25.23 1 24.341 1h-.145c-.886 0-1.966.167-2.778.533-2.868 1.283-3.238 4.535-3.238 7.291 0 1.348.156 2.803.624 4.072.087.236.531.805.531 1.025v4.444c0 1.116-.822 1.474-1.652 1.956-2.356 1.368-6.87 2.721-6.885 5.879-.005 1.318.009 2.64.004 3.96M1.005 30.16c.004-.983-.01-1.967-.003-2.95.009-2.353 3.372-3.359 5.128-4.379.617-.359 1.23-.625 1.23-1.457v-3.311c0-.164-.331-.588-.395-.764-.35-.945-.465-2.029-.465-3.033 0-2.053.275-4.475 2.41-5.432.606-.271 1.409-.396 2.069-.396" stroke="#222" stroke-width="2" stroke-miterlimit="10" stroke-linejoin="round"/>
    <path d="M14.71 18.063c0-.164.33-.588.398-.764.348-.945.463-2.029.463-3.033 0-2.053-.275-4.475-2.41-5.432-.606-.271-1.41-.396-2.071-.396M47.534 30.16c-.003-.983.008-1.967.003-2.95-.008-2.353-3.373-3.359-5.128-4.379-.616-.359-1.23-.625-1.23-1.457v-3.311c0-.164.33-.588.396-.764.348-.945.465-2.029.465-3.033 0-2.053-.276-4.475-2.412-5.432-.604-.271-1.408-.396-2.07-.396M33.829 18.063c0-.164-.331-.588-.397-.764-.35-.945-.464-2.029-.464-3.033 0-2.053.275-4.475 2.41-5.432.606-.271 1.41-.396 2.069-.396" stroke="#222" stroke-width="2" stroke-miterlimit="10" stroke-linejoin="round"/>
    <path d="M37.737 30.16c-.005-1.32.009-2.642.004-3.96-.013-3.158-4.527-4.511-6.885-5.879-.833-.482-1.653-.84-1.653-1.956v-4.44c0-.225.444-.793.531-1.029.47-1.27.626-2.725.626-4.072 0-2.756-.371-6.008-3.239-7.291C26.309 1.167 25.23 1 24.341 1h-.145c-.886 0-1.966.167-2.778.533-2.868 1.283-3.238 4.535-3.238 7.291 0 1.348.156 2.803.624 4.072.087.236.531.805.531 1.025v4.444c0 1.116-.822 1.474-1.652 1.956-2.356 1.368-6.87 2.721-6.885 5.879-.005 1.318.009 2.64.004 3.96M1.005 30.16c.004-.983-.01-1.967-.003-2.95.009-2.353 3.372-3.359 5.128-4.379.617-.359 1.23-.625 1.23-1.457v-3.311c0-.164-.331-.588-.395-.764-.35-.945-.465-2.029-.465-3.033 0-2.053.275-4.475 2.41-5.432.606-.271 1.409-.396 2.069-.396" stroke="#222" stroke-width="2" stroke-miterlimit="10" stroke-linejoin="round"/>
    <path d="M14.71 18.063c0-.164.33-.588.398-.764.348-.945.463-2.029.463-3.033 0-2.053-.275-4.475-2.41-5.432-.606-.271-1.41-.396-2.071-.396M47.534 30.16c-.003-.983.008-1.967.003-2.95-.008-2.353-3.373-3.359-5.128-4.379-.616-.359-1.23-.625-1.23-1.457v-3.311c0-.164.33-.588.396-.764.348-.945.465-2.029.465-3.033 0-2.053-.276-4.475-2.412-5.432-.604-.271-1.408-.396-2.07-.396M33.829 18.063c0-.164-.331-.588-.397-.764-.35-.945-.464-2.029-.464-3.033 0-2.053.275-4.475 2.41-5.432.606-.271 1.41-.396 2.069-.396" stroke="#222" stroke-width="2" stroke-miterlimit="10" stroke-linejoin="round"/>
</svg>
