<svg width="32" height="32" viewBox="0 0 32 32" fill="none" xmlns="http://www.w3.org/2000/svg">
    <mask id="f2o53vuaza" style="mask-type:alpha" maskUnits="userSpaceOnUse" x="0" y="0" width="32" height="32">
        <path fill="#D9D9D9" d="M0 0h32v32H0z"/>
    </mask>
    <g mask="url(#f2o53vuaza)">
        <path d="M8.03 23.057a14.537 14.537 0 0 1 3.704-1.993 12.352 12.352 0 0 1 4.266-.73c1.507 0 2.93.243 4.265.73a14.536 14.536 0 0 1 3.704 1.993 10.507 10.507 0 0 0 1.97-3.165c.485-1.198.727-2.495.727-3.892 0-2.955-1.039-5.472-3.116-7.55-2.078-2.078-4.595-3.117-7.55-3.117-2.956 0-5.473 1.04-7.55 3.117-2.078 2.078-3.117 4.595-3.117 7.55 0 1.397.242 2.694.727 3.892a10.508 10.508 0 0 0 1.97 3.165zM16 17c-1.217 0-2.244-.418-3.08-1.253-.836-.836-1.254-1.863-1.254-3.08s.418-2.244 1.254-3.08c.835-.836 1.862-1.253 3.08-1.253 1.217 0 2.243.417 3.08 1.253.835.836 1.253 1.862 1.253 3.08 0 1.217-.418 2.243-1.253 3.08C18.244 16.581 17.216 17 16 17zm0 11.667c-1.76 0-3.41-.331-4.95-.993a12.72 12.72 0 0 1-4.022-2.702 12.722 12.722 0 0 1-2.703-4.022c-.661-1.54-.992-3.19-.992-4.95 0-1.759.33-3.409.992-4.95a12.72 12.72 0 0 1 2.703-4.022 12.721 12.721 0 0 1 4.022-2.702c1.54-.662 3.19-.992 4.95-.992 1.759 0 3.409.33 4.95.992a12.722 12.722 0 0 1 4.021 2.702 12.72 12.72 0 0 1 2.703 4.022c.662 1.541.992 3.191.992 4.95 0 1.76-.33 3.41-.992 4.95a12.72 12.72 0 0 1-2.703 4.022 12.72 12.72 0 0 1-4.021 2.702c-1.541.662-3.191.993-4.95.993zm0-2c1.203 0 2.363-.194 3.48-.581a9.873 9.873 0 0 0 2.976-1.624 10.142 10.142 0 0 0-2.937-1.567c-1.092-.374-2.265-.562-3.52-.562-1.254 0-2.43.186-3.525.556a9.666 9.666 0 0 0-2.93 1.573 9.873 9.873 0 0 0 2.975 1.624c1.117.387 2.277.58 3.48.58zM16 15c.663 0 1.218-.223 1.664-.67.446-.445.669-1 .669-1.663s-.223-1.218-.67-1.664c-.445-.447-1-.67-1.663-.67-.664 0-1.218.223-1.665.67-.446.446-.669 1-.669 1.664 0 .663.223 1.218.67 1.664.446.446 1 .67 1.664.67z" fill="#222"/>
    </g>
</svg>
