<svg width="32" height="32" viewBox="0 0 32 32" fill="none" xmlns="http://www.w3.org/2000/svg">
    <mask id="82gd313uya" style="mask-type:alpha" maskUnits="userSpaceOnUse" x="0" y="0" width="32" height="32">
        <path fill="#D9D9D9" d="M0 0h32v32H0z"/>
    </mask>
    <g mask="url(#82gd313uya)">
        <path d="M6 25.18v-2h2.41v-9.95c0-1.793.554-3.378 1.66-4.756 1.107-1.378 2.528-2.259 4.263-2.644V5c0-.463.162-.857.486-1.18a1.605 1.605 0 0 1 1.18-.487c.462 0 .856.162 1.18.486.325.324.488.718.488 1.18v.831c1.735.385 3.156 1.266 4.262 2.644 1.107 1.378 1.66 2.963 1.66 4.756v9.95H26v2H6zm9.998 3.743c-.664 0-1.23-.236-1.702-.708a2.324 2.324 0 0 1-.706-1.703h4.82c0 .665-.236 1.233-.709 1.704-.472.471-1.04.707-1.703.707zm-5.588-5.744h11.18V13.23c0-1.543-.546-2.86-1.637-3.952C18.86 8.186 17.543 7.64 16 7.64c-1.544 0-2.861.545-3.953 1.637-1.091 1.091-1.637 2.409-1.637 3.952v9.95z" fill="#999"/>
    </g>
</svg>
