<svg width="24" height="24" viewBox="0 0 24 24" fill="none" xmlns="http://www.w3.org/2000/svg">
    <mask id="rhu6fibdwa" style="mask-type:alpha" maskUnits="userSpaceOnUse" x="0" y="0" width="24" height="24">
        <path fill="#D9D9D9" d="M0 0h24v24H0z"/>
    </mask>
    <g mask="url(#rhu6fibdwa)">
        <path d="M12 13c.967 0 1.792-.342 2.475-1.025A3.372 3.372 0 0 0 15.5 9.5c0-.967-.342-1.792-1.025-2.475A3.372 3.372 0 0 0 12 6c-.967 0-1.792.342-2.475 1.025A3.372 3.372 0 0 0 8.5 9.5c0 .967.342 1.792 1.025 2.475A3.372 3.372 0 0 0 12 13zm-7 8c-.55 0-1.02-.196-1.413-.587A1.926 1.926 0 0 1 3 19V5c0-.55.196-1.02.587-1.413A1.926 1.926 0 0 1 5 3h14c.55 0 1.02.196 1.413.587C20.803 3.98 21 4.45 21 5v14c0 .55-.196 1.02-.587 1.413A1.926 1.926 0 0 1 19 21H5zm0-2h14v-1.15a10.08 10.08 0 0 0-3.137-2.088C14.67 15.255 13.383 15 12 15s-2.67.254-3.863.762A10.08 10.08 0 0 0 5 17.85V19z" fill="#4F46E5" fill-opacity=".6"/>
    </g>
</svg>
