<svg width="24" height="24" viewBox="0 0 24 24" fill="none" xmlns="http://www.w3.org/2000/svg">
    <mask id="wzabhgh5ja" style="mask-type:alpha" maskUnits="userSpaceOnUse" x="0" y="0" width="24" height="24">
        <path fill="#D9D9D9" d="M0 0h24v24H0z"/>
    </mask>
    <g mask="url(#wzabhgh5ja)">
        <path d="M11 20.43c-1.876-.243-3.428-1.07-4.657-2.478C5.114 16.542 4.5 14.892 4.5 13c0-1.017.2-1.99.602-2.922a7.59 7.59 0 0 1 1.686-2.455l1.07 1.07a5.522 5.522 0 0 0-1.39 1.95A6.003 6.003 0 0 0 6 13c0 1.467.468 2.76 1.405 3.878C8.34 17.997 9.54 18.68 11 18.93v1.5zm2 .02v-1.5c1.444-.292 2.638-.992 3.583-2.1C17.528 15.745 18 14.46 18 13c0-1.667-.583-3.083-1.75-4.25C15.083 7.583 13.667 7 12 7h-.354l1.35 1.35-1.054 1.054L8.788 6.25l3.154-3.154 1.054 1.054-1.35 1.35H12c2.092 0 3.865.727 5.32 2.18 1.453 1.455 2.18 3.228 2.18 5.32 0 1.882-.616 3.524-1.848 4.927C16.42 19.329 14.869 20.17 13 20.45z" fill="#999"/>
    </g>
</svg>
