<svg width="24" height="25" viewBox="0 0 24 25" fill="none" xmlns="http://www.w3.org/2000/svg">
    <mask id="rrsrda6tga" style="mask-type:alpha" maskUnits="userSpaceOnUse" x="0" y="0" width="24" height="25">
        <path fill="#D9D9D9" d="M0 .5h24v24H0z"/>
    </mask>
    <g mask="url(#rrsrda6tga)">
        <path d="M11 20.93c-1.876-.243-3.428-1.07-4.657-2.478C5.114 17.042 4.5 15.392 4.5 13.5c0-1.017.2-1.99.602-2.922a7.59 7.59 0 0 1 1.686-2.455l1.07 1.07a5.522 5.522 0 0 0-1.39 1.95A6.003 6.003 0 0 0 6 13.5c0 1.467.468 2.76 1.405 3.878C8.34 18.497 9.54 19.18 11 19.43v1.5zm2 .02v-1.5c1.444-.292 2.638-.992 3.583-2.1C17.528 16.245 18 14.96 18 13.5c0-1.667-.583-3.083-1.75-4.25C15.083 8.083 13.667 7.5 12 7.5h-.354l1.35 1.35-1.054 1.054L8.788 6.75l3.154-3.154 1.054 1.054L11.646 6H12c2.092 0 3.865.727 5.32 2.18 1.453 1.455 2.18 3.228 2.18 5.32 0 1.882-.616 3.524-1.848 4.927C16.42 19.829 14.869 20.67 13 20.95z" fill="#999"/>
    </g>
</svg>
