<svg width="60" height="60" viewBox="0 0 60 60" fill="none" xmlns="http://www.w3.org/2000/svg">
    <path d="M30 37.5 22.5 30m7.5 7.5a55.88 55.88 0 0 0 10-5m-10 5V50s7.575-1.375 10-5c2.7-4.05 0-12.5 0-12.5M22.5 30a55 55 0 0 1 5-9.875A32.2 32.2 0 0 1 55 5c0 6.8-1.95 18.75-15 27.5M22.5 30H10s1.375-7.575 5-10c4.05-2.7 12.5 0 12.5 0M11.25 41.25c-3.75 3.15-5 12.5-5 12.5s9.35-1.25 12.5-5c1.775-2.1 1.75-5.325-.225-7.275a5.45 5.45 0 0 0-7.275-.225z" stroke="#4F46E5" stroke-width="3" stroke-linecap="round" stroke-linejoin="round"/>
</svg>
