<svg width="24" height="24" viewBox="0 0 24 24" fill="none" xmlns="http://www.w3.org/2000/svg">
    <mask id="0qv9nn5yua" style="mask-type:alpha" maskUnits="userSpaceOnUse" x="0" y="0" width="24" height="24">
        <path fill="#D9D9D9" d="M0 0h24v24H0z"/>
    </mask>
    <g mask="url(#0qv9nn5yua)">
        <path d="M2 21a.967.967 0 0 1-.712-.288A.968.968 0 0 1 1 20c0-.283.096-.52.288-.712A.967.967 0 0 1 2 19h20c.283 0 .52.096.712.288.192.191.288.429.288.712s-.096.52-.288.712A.968.968 0 0 1 22 21H2zm2-3c-.55 0-1.02-.196-1.413-.587A1.926 1.926 0 0 1 2 16V5c0-.55.196-1.02.587-1.413A1.926 1.926 0 0 1 4 3h16c.55 0 1.02.196 1.413.587C21.803 3.98 22 4.45 22 5v11c0 .55-.196 1.02-.587 1.413A1.926 1.926 0 0 1 20 18H4z" fill="#999"/>
    </g>
</svg>
