<svg width="24" height="24" viewBox="0 0 24 24" fill="none" xmlns="http://www.w3.org/2000/svg">
    <mask id="8ei7b6bbia" style="mask-type:alpha" maskUnits="userSpaceOnUse" x="0" y="0" width="24" height="24">
        <path fill="#D9D9D9" d="M0 0h24v24H0z"/>
    </mask>
    <g mask="url(#8ei7b6bbia)">
        <path d="M8 9V7h8v2H8zM7 23c-.55 0-1.02-.196-1.412-.587A1.926 1.926 0 0 1 5 21V3c0-.55.196-1.02.588-1.413A1.926 1.926 0 0 1 7 1h10c.55 0 1.02.196 1.413.587C18.803 1.98 19 2.45 19 3v18c0 .55-.196 1.02-.587 1.413A1.926 1.926 0 0 1 17 23H7zm0-5h10V6H7v12z" fill="#999"/>
    </g>
</svg>
